<?xml version="1.0" encoding="utf-8"?>
<!-- Generator: Adobe Illustrator 16.0.0, SVG Export Plug-In . SVG Version: 6.00 Build 0)  -->
<!DOCTYPE svg PUBLIC "-//W3C//DTD SVG 1.1//EN" "http://www.w3.org/Graphics/SVG/1.1/DTD/svg11.dtd">
<svg version="1.1" id="Capa_1" xmlns="http://www.w3.org/2000/svg" xmlns:xlink="http://www.w3.org/1999/xlink" x="0px" y="0px"
	 width="48px" height="48px" viewBox="0 0 48 48" enable-background="new 0 0 48 48" xml:space="preserve">
<path fill="#FF0022" d="M32.15,34.35l2.199-2.05c0.234-0.233,0.351-0.491,0.351-0.774s-0.116-0.542-0.351-0.775l-7.6-7.6
	c0.166-0.467,0.3-0.917,0.4-1.35c0.1-0.433,0.149-0.883,0.149-1.35c0-1.934-0.683-3.583-2.05-4.95
	c-1.367-1.367-3.017-2.05-4.95-2.05c-0.566,0-1.133,0.083-1.7,0.25c-0.567,0.167-1.117,0.4-1.65,0.7l4.4,4.35l-2.7,2.55l-4.3-4.25
	c-0.3,0.534-0.525,1.083-0.675,1.65c-0.15,0.566-0.225,1.15-0.225,1.75c0,1.9,0.667,3.508,2,4.825
	c1.333,1.316,2.95,1.975,4.85,1.975c0.467,0,0.925-0.041,1.375-0.125c0.45-0.084,0.909-0.209,1.375-0.375l7.55,7.6
	c0.2,0.2,0.459,0.301,0.775,0.301S31.95,34.55,32.15,34.35z M24,44c-2.733,0-5.317-0.525-7.75-1.575s-4.558-2.483-6.375-4.3
	s-3.25-3.941-4.3-6.375C4.525,29.316,4,26.733,4,24c0-2.767,0.525-5.367,1.575-7.8c1.05-2.434,2.483-4.55,4.3-6.35
	c1.817-1.8,3.942-3.225,6.375-4.275C18.683,4.525,21.267,4,24,4c2.767,0,5.367,0.525,7.8,1.575c2.434,1.05,4.55,2.475,6.351,4.275
	c1.8,1.8,3.225,3.917,4.274,6.35C43.475,18.633,44,21.233,44,24c0,2.733-0.525,5.316-1.575,7.75s-2.475,4.559-4.274,6.375
	c-1.801,1.816-3.917,3.25-6.351,4.3C29.367,43.475,26.767,44,24,44z M24,41c4.733,0,8.75-1.658,12.05-4.975S41,28.7,41,24
	c0-4.733-1.65-8.75-4.95-12.05C32.75,8.65,28.733,7,24,7c-4.7,0-8.708,1.65-12.025,4.95C8.658,15.25,7,19.267,7,24
	c0,4.7,1.658,8.709,4.975,12.025C15.292,39.342,19.3,41,24,41z"/>
</svg>
