<?xml version="1.0" encoding="utf-8"?>
<!-- Generator: Adobe Illustrator 16.0.0, SVG Export Plug-In . SVG Version: 6.00 Build 0)  -->
<!DOCTYPE svg PUBLIC "-//W3C//DTD SVG 1.1//EN" "http://www.w3.org/Graphics/SVG/1.1/DTD/svg11.dtd">
<svg version="1.1" id="Capa_1" xmlns="http://www.w3.org/2000/svg" xmlns:xlink="http://www.w3.org/1999/xlink" x="0px" y="0px"
	 width="100px" height="100px" viewBox="0 0 100 100" enable-background="new 0 0 100 100" xml:space="preserve">
<g>
	<path d="M37.551,42.312c-1.187,0-2.149,0.962-2.149,2.149v33.038c0,1.188,0.962,2.149,2.149,2.149s2.149-0.962,2.149-2.149V44.46
		C39.7,43.274,38.738,42.312,37.551,42.312z"/>
	<path d="M62.441,42.312c-1.187,0-2.148,0.962-2.148,2.149v33.038c0,1.188,0.962,2.149,2.148,2.149c1.188,0,2.149-0.962,2.149-2.149
		V44.46C64.59,43.274,63.628,42.312,62.441,42.312z"/>
	<path d="M50,42.312c-1.187,0-2.149,0.962-2.149,2.149v33.038c0,1.188,0.962,2.149,2.149,2.149s2.148-0.962,2.148-2.149V44.46
		C52.149,43.274,51.187,42.312,50,42.312z"/>
	<path d="M82.481,24.963c-0.096-1.88-1.622-4.677-5.437-4.677H62.137V18.07c0-5.47-3.815-7.574-6.446-7.655H50l-5.757,0.001
		c-2.564,0.08-6.379,2.184-6.379,7.654v2.216H22.957c-3.814,0-5.341,2.797-5.437,4.677l-0.003,7.629
		c0,1.717,0.684,2.745,1.257,3.305c0.802,0.782,1.732,1.015,2.275,1.083l3.385,46.646c0.046,4.37,3.629,5.96,6.043,5.96H50h19.523
		c2.414,0,5.997-1.59,6.043-5.96l3.385-46.653c0.563-0.069,1.479-0.299,2.275-1.076c0.572-0.56,1.257-1.587,1.257-3.305v-7.52
		L82.481,24.963z M42.162,18.07c0-2.835,1.524-3.295,2.221-3.357H50h5.617c0.697,0.062,2.222,0.522,2.222,3.357v2.216H50h-7.839
		V18.07z M21.815,25.15c0.023-0.193,0.192-0.567,1.142-0.567H50h27.044c0.734,0,1.079,0.193,1.142,0.581v7.429
		c0,0.044-0.001,0.082-0.003,0.116H50H21.818c-0.002-0.034-0.003-0.072-0.003-0.116V25.15z M71.275,83.387l-0.005,0.155
		c0,1.125-0.598,1.713-1.746,1.746H50H30.506c-1.177-0.033-1.774-0.621-1.774-1.746L25.36,37.007H50l24.64-0.001L71.275,83.387z"/>
</g>
</svg>
