<?xml version="1.0" encoding="utf-8"?>
<!-- Generator: Adobe Illustrator 16.0.0, SVG Export Plug-In . SVG Version: 6.00 Build 0)  -->
<!DOCTYPE svg PUBLIC "-//W3C//DTD SVG 1.1//EN" "http://www.w3.org/Graphics/SVG/1.1/DTD/svg11.dtd">
<svg version="1.1" id="Capa_1" xmlns="http://www.w3.org/2000/svg" xmlns:xlink="http://www.w3.org/1999/xlink" x="0px" y="0px"
	 width="180.795px" height="74.5px" viewBox="0 0 180.795 74.5" enable-background="new 0 0 180.795 74.5" xml:space="preserve">
<g>
	<path fill="#FFFFFF" d="M165.649,47.854c-4.364,4.453-10.424,7.305-15.68,7.305c-9.89,0-17.373-7.93-17.373-18.354
		c0-10.244,7.483-18.084,17.373-18.084c5.523,0,11.582,3.117,15.68,8.107l9.177-10.869c-6.236-6.415-15.858-10.514-25.124-10.514
		c-18.977,0-33.321,13.541-33.321,31.539c0,18.264,13.988,32.072,32.786,32.072c9.176,0,19.064-4.543,25.747-11.404L165.649,47.854z
		"/>
	<path fill="#FFFFFF" d="M76.278,5.979L61.359,40.561c5.25-3.168,9.861-4.953,12.067-5.714c0.098-0.958,0.485-1.965,1.117-2.953
		c-1.765-2.687-6.195-3.354-6.195-3.354c5.105-3.887,8.953-3.162,11.571-1.376c0.331-0.175,0.668-0.341,1.015-0.494
		c5.087-2.254,15.398-2.888,16.521-0.355c1.122,2.534-6.485,9.839-11.573,12.09c-0.277,0.123-0.56,0.236-0.84,0.342
		c-0.443,3.136-2.496,6.46-8.793,7.629c0,0,2.45-3.684,1.692-6.781c-1.292-0.225-2.4-0.691-3.205-1.394
		c-14.555,5.612-21.66,23.255-23.932,30.144h14.872l4.543-11.492h27.262l4.455,11.492h16.926L92.582,5.979H76.278z"/>
	<circle fill="#FFFFFF" cx="84.119" cy="32.114" r="2.966"/>
	<path fill="#FFFFFF" d="M11.583,18.72h21.381v29.043c0,5.076-2.494,7.661-6.682,7.661c-3.652,0-8.642-2.315-13.096-6.948
		L5.88,59.077c5.523,6.325,12.65,9.979,21.471,9.979c4.599,0,8.582-0.941,11.846-2.695c2.238-6.303,5.692-11.498,9.605-15.717
		c0.07-0.818,0.109-1.658,0.109-2.524V5.89H11.583V18.72z"/>
</g>
</svg>
