<?xml version="1.0" encoding="utf-8"?>
<!-- Generator: Adobe Illustrator 16.0.0, SVG Export Plug-In . SVG Version: 6.00 Build 0)  -->
<!DOCTYPE svg PUBLIC "-//W3C//DTD SVG 1.1//EN" "http://www.w3.org/Graphics/SVG/1.1/DTD/svg11.dtd">
<svg version="1.1" id="Capa_1" xmlns="http://www.w3.org/2000/svg" xmlns:xlink="http://www.w3.org/1999/xlink" x="0px" y="0px"
	 width="386.933px" height="33.868px" viewBox="0 0 386.933 33.868" enable-background="new 0 0 386.933 33.868"
	 xml:space="preserve">
<g>
	<path fill="#182539" d="M19.206,28.765c-6.248,0-11.33-5.084-11.33-11.335c0-6.248,5.082-11.331,11.33-11.331
		c6.251,0,11.337,5.083,11.337,11.331C30.543,23.681,25.457,28.765,19.206,28.765 M19.206,7.158c-5.663,0-10.27,4.607-10.27,10.271
		c0,5.666,4.607,10.273,10.27,10.273c5.667,0,10.276-4.607,10.276-10.273C29.482,11.767,24.873,7.158,19.206,7.158"/>
	<path fill="#182539" d="M367.723,29.662c-6.252,0-11.336-5.084-11.336-11.333c0-6.246,5.084-11.328,11.336-11.328
		c6.248,0,11.334,5.082,11.334,11.328C379.057,24.578,373.971,29.662,367.723,29.662 M367.723,8.062
		c-5.668,0-10.277,4.604-10.277,10.268c0,5.665,4.609,10.272,10.277,10.272c5.664,0,10.273-4.608,10.273-10.272
		C377.998,12.666,373.387,8.062,367.723,8.062"/>
	<path fill="#182539" d="M37.531,25.494h2.271l3.138-14.796h-2.273l0.54-2.543h8.791c3.894,0,6.329,2.083,5.787,5.572l-0.107,0.513
		c-0.378,1.787-1.298,2.651-3.297,3.355v0.08c2.298,0.648,3.379,2.461,2.892,4.814l-0.108,0.514c-0.81,3.866-3.11,5.111-7.006,5.111
		H36.962L37.531,25.494z M48.185,25.305c1.299,0,2.708-0.568,3.166-2.679l0.083-0.38c0.459-2.136-0.733-3.299-2.49-3.299h-3.868
		l-1.352,6.357H48.185z M48.861,16.406c1.514,0,2.652-0.296,3.058-2.245l0.08-0.378c0.462-2.11-0.838-2.813-2.569-2.813h-2.65
		l-1.164,5.437L48.861,16.406L48.861,16.406z"/>
	<path fill="#182539" d="M57.22,25.574l8.384-14.794H63.25l0.567-2.625h6.492l3.058,17.419h1.729l-0.541,2.542h-7.788l0.54-2.542
		h2.218l-0.433-2.73h-6.707l-1.436,2.73h2.058l-0.542,2.542h-7.52l0.542-2.542H57.22z M63.737,20.274h4.95l-1.107-7.112h-0.11
		L63.737,20.274z"/>
	<polygon fill="#182539" points="77.777,25.574 80.075,25.574 83.213,10.862 80.209,10.862 79.13,13.835 76.154,13.835 
		77.372,8.156 94.086,8.156 92.868,13.835 90.029,13.835 90.135,10.862 87.108,10.862 83.97,25.574 86.243,25.574 85.7,28.116 
		77.236,28.116 	"/>
	<polygon fill="#182539" points="91.518,25.574 93.79,25.574 96.928,10.781 94.656,10.781 95.223,8.156 110.071,8.156 
		108.964,13.294 106.257,13.294 106.312,10.862 100.82,10.862 99.632,16.406 102.469,16.406 103.009,14.944 105.579,14.944 
		104.336,20.759 101.929,20.759 101.929,19.109 99.063,19.109 97.712,25.412 103.933,25.412 105.039,22.705 107.852,22.705 
		106.69,28.116 90.976,28.116 	"/>
	<path fill="#182539" d="M118.267,20.245h-2.648l-1.138,5.329h2.165l-0.542,2.542h-8.331l0.54-2.542h2.271l3.143-14.794h-2.271
		l0.566-2.625h9.033c4.922,0,6.926,2.813,6.086,6.681l-0.135,0.622c-0.543,2.488-2.166,3.978-4.922,4.544l2.188,5.572h2.054
		l-0.539,2.542h-4.572L118.267,20.245z M116.208,17.46h3.139c2.218,0,3.326-0.541,3.867-2.706l0.084-0.432
		c0.515-2.732-0.731-3.354-2.949-3.354h-2.758L116.208,17.46z"/>
	<path fill="#182539" d="M127.353,25.574h2.516l3.143-14.794h-2.518l0.566-2.625h8.926l-0.57,2.625h-2.513l-3.138,14.794h2.516
		l-0.541,2.542h-8.927L127.353,25.574z M136.361,2.205h3.869l-3.141,4.519h-3L136.361,2.205z"/>
	<path fill="#182539" d="M139.041,25.574l8.389-14.794h-2.355l0.566-2.625h6.49l3.061,17.419h1.729l-0.541,2.542h-7.789l0.541-2.542
		h2.218l-0.435-2.73h-6.705l-1.435,2.73h2.06l-0.545,2.542h-7.521l0.54-2.542H139.041z M145.557,20.274h4.952l-1.11-7.112h-0.106
		L145.557,20.274z"/>
	<path fill="#182539" d="M171.523,9.644c0.246-0.679,0.598-1.489,0.785-1.489h2.596l-1.16,5.465h-2.978
		c-0.216-1.487-0.841-2.649-2.812-2.84c-2.191-0.216-3.41,0.512-3.734,2.082c-0.514,2.462,1.137,2.759,3.922,3.652
		c3.518,1.134,5.762,2.812,4.869,7.005c-0.703,3.353-3.545,5.301-8.032,4.813c-1.921-0.216-3.14-0.893-3.948-2.082
		c-0.326,0.785-0.783,1.866-0.975,1.866h-2.598l1.297-6.141h3.059c0.217,2.166,1.244,3.272,3.273,3.465
		c2.92,0.297,3.92-0.814,4.246-2.329c0.457-2.053-0.895-2.65-3.438-3.46c-4.003-1.298-6.168-2.679-5.193-7.168
		c0.76-3.543,3.732-5.004,7.332-4.625C169.63,8.046,170.848,8.696,171.523,9.644"/>
	<polygon fill="#FF0022" points="362.606,16.84 366.255,16.84 367.121,12.857 370.419,12.857 369.573,16.84 373.27,16.84 
		372.606,19.96 368.91,19.96 368.069,23.962 364.752,23.962 365.591,19.96 361.942,19.96 	"/>
	<polygon fill="#FF0022" points="14.752,15.724 24.521,15.724 23.615,19.942 13.846,19.942 	"/>
	<g>
		<path fill="#FF0022" d="M190.496,10.203c0.38-1.081,0.757-2.056,0.944-2.056h3.218l-1.378,6.408h-3.622
			c-0.136-1.705-0.946-2.731-2.677-2.919c-2.379-0.244-3.486,1.461-4.19,4.702l-0.595,2.756c-0.756,3.487,0.029,5.326,2.65,5.622
			c2.296,0.246,3.893-1.027,5.002-1.999l2.27,2.864c-1.678,1.702-4.354,3.272-8.597,2.812c-5.109-0.541-7.811-3.946-6.566-9.704
			l0.646-3.136c1.217-5.729,4.677-8.243,9.218-7.731C188.901,8.068,189.983,9.013,190.496,10.203"/>
		<path fill="#FF0022" d="M195.173,25.097l7.919-13.868h-2.162l0.675-3.081h8.434l2.486,16.949h1.487l-0.648,3h-8.839l0.649-3h1.973
			l-0.243-2.218h-5.812l-1.135,2.218h1.973l-0.648,3h-8.244l0.648-3H195.173z M202.633,19.827h3.946l-0.649-6.11h-0.162
			L202.633,19.827z"/>
		<polygon fill="#FF0022" points="215.555,25.097 217.528,25.097 220.473,11.23 218.473,11.23 219.149,8.148 226.528,8.148 
			230.797,21.717 230.907,21.717 233.125,11.23 231.313,11.23 231.961,8.148 239.666,8.148 239.014,11.23 237.125,11.23 
			233.555,28.096 228.014,28.096 223.877,14.932 223.77,14.932 221.609,25.097 223.445,25.097 222.825,28.096 214.906,28.096 		"/>
		<polygon fill="#FF0022" points="237.612,25.097 239.582,25.097 242.531,11.23 240.531,11.23 241.206,8.148 256.912,8.148 
			255.774,13.554 252.451,13.554 252.477,11.447 247.749,11.447 246.72,16.314 248.992,16.314 249.532,14.962 252.533,14.962 
			251.26,20.908 248.45,20.908 248.423,19.337 246.071,19.337 244.91,24.8 250.396,24.8 251.371,22.396 254.831,22.396 
			253.613,28.096 236.962,28.096 		"/>
		<polygon fill="#FF0022" points="259.261,11.23 257.936,11.23 258.612,8.148 267.426,8.148 266.75,11.23 264.614,11.23 
			266.129,21.554 266.235,21.554 271.993,11.23 269.913,11.23 270.561,8.148 278.425,8.148 277.779,11.23 276.455,11.23 
			266.158,28.259 262.345,28.259 		"/>
		<polygon fill="#FF0022" points="276.375,25.097 278.348,25.097 281.294,11.23 279.292,11.23 279.968,8.148 295.673,8.148 
			294.537,13.554 291.214,13.554 291.241,11.447 286.509,11.447 285.484,16.314 287.753,16.314 288.291,14.962 291.294,14.962 
			290.021,20.908 287.21,20.908 287.185,19.337 284.835,19.337 283.67,24.8 289.158,24.8 290.133,22.396 293.591,22.396 
			292.375,28.096 275.727,28.096 		"/>
		<polygon fill="#FF0022" points="294.591,25.097 296.563,25.097 299.512,11.23 297.511,11.23 298.185,8.148 307.674,8.148 
			307.026,11.23 304.781,11.23 301.888,24.8 306.514,24.8 307.65,21.906 311.19,21.906 309.861,28.096 293.941,28.096 		"/>
		<polygon fill="#FF0022" points="312.055,25.097 314.025,25.097 316.972,11.23 314.972,11.23 315.65,8.148 325.136,8.148 
			324.488,11.23 322.243,11.23 319.351,24.8 323.977,24.8 325.111,21.906 328.652,21.906 327.325,28.096 311.406,28.096 		"/>
		<path fill="#FF0022" d="M330.897,18.583l0.673-3.056c1.245-5.678,5.327-8.217,10.675-7.676c5.14,0.54,7.84,4.08,6.601,9.731
			l-0.65,3.081c-1.271,5.866-5.542,8.271-10.649,7.702C332.436,27.826,329.596,24.448,330.897,18.583 M342.977,19.854l0.593-2.73
			c0.732-3.432,0.139-5.354-2.268-5.623c-2.408-0.27-3.84,1.272-4.568,4.84l-0.595,2.729c-0.702,3.435-0.137,5.406,2.271,5.678
			C340.841,25.017,342.22,23.394,342.977,19.854"/>
	</g>
</g>
</svg>
