<?xml version="1.0" encoding="utf-8"?>
<!-- Generator: Adobe Illustrator 16.0.0, SVG Export Plug-In . SVG Version: 6.00 Build 0)  -->
<!DOCTYPE svg PUBLIC "-//W3C//DTD SVG 1.1//EN" "http://www.w3.org/Graphics/SVG/1.1/DTD/svg11.dtd">
<svg version="1.1" id="Capa_1" xmlns="http://www.w3.org/2000/svg" xmlns:xlink="http://www.w3.org/1999/xlink" x="0px" y="0px"
	 width="237.786px" height="67.736px" viewBox="0 0 237.786 67.736" enable-background="new 0 0 237.786 67.736"
	 xml:space="preserve">
<g>
	<path fill="#182539" d="M27.082,28.601c-6.248,0-11.33-5.084-11.33-11.335c0-6.248,5.082-11.331,11.33-11.331
		c6.251,0,11.337,5.083,11.337,11.331C38.419,23.517,33.333,28.601,27.082,28.601 M27.082,6.995c-5.663,0-10.27,4.607-10.27,10.271
		c0,5.666,4.607,10.274,10.27,10.274c5.667,0,10.276-4.608,10.276-10.274C37.358,11.603,32.749,6.995,27.082,6.995"/>
	<path fill="#182539" d="M210.7,29.499c-6.252,0-11.336-5.084-11.336-11.333c0-6.246,5.084-11.328,11.336-11.328
		c6.248,0,11.334,5.082,11.334,11.328C222.034,24.415,216.948,29.499,210.7,29.499 M210.7,7.898
		c-5.668,0-10.277,4.604-10.277,10.268c0,5.665,4.609,10.272,10.277,10.272c5.664,0,10.273-4.608,10.273-10.272
		C220.974,12.503,216.364,7.898,210.7,7.898"/>
	<path fill="#182539" d="M49.407,25.331h2.271l3.138-14.796h-2.273l0.54-2.543h8.791c3.894,0,6.329,2.083,5.787,5.572l-0.107,0.513
		c-0.378,1.787-1.298,2.651-3.297,3.355v0.08c2.298,0.649,3.379,2.461,2.892,4.815l-0.108,0.514c-0.81,3.866-3.11,5.111-7.006,5.111
		H48.838L49.407,25.331z M60.061,25.141c1.299,0,2.708-0.568,3.166-2.678l0.083-0.38c0.459-2.136-0.733-3.299-2.49-3.299h-3.868
		L55.6,25.141H60.061z M60.737,16.242c1.514,0,2.652-0.296,3.058-2.245l0.08-0.378c0.462-2.11-0.838-2.813-2.569-2.813h-2.65
		l-1.164,5.437L60.737,16.242L60.737,16.242z"/>
	<path fill="#182539" d="M69.096,25.411l8.384-14.794h-2.354l0.567-2.625h6.492l3.058,17.419h1.729l-0.541,2.542h-7.788l0.54-2.542
		h2.218l-0.433-2.731h-6.707l-1.436,2.731h2.058l-0.542,2.542h-7.52l0.542-2.542H69.096z M75.613,20.11h4.95l-1.107-7.112h-0.11
		L75.613,20.11z"/>
	<polygon fill="#182539" points="89.653,25.411 91.951,25.411 95.089,10.698 92.085,10.698 91.006,13.672 88.03,13.672 
		89.248,7.992 105.962,7.992 104.744,13.672 101.905,13.672 102.011,10.698 98.984,10.698 95.846,25.411 98.119,25.411 
		97.576,27.953 89.112,27.953 	"/>
	<polygon fill="#182539" points="103.394,25.411 105.666,25.411 108.804,10.617 106.532,10.617 107.099,7.992 121.947,7.992 
		120.84,13.131 118.133,13.131 118.188,10.698 112.696,10.698 111.508,16.242 114.345,16.242 114.885,14.78 117.455,14.78 
		116.212,20.595 113.805,20.595 113.805,18.945 110.939,18.945 109.588,25.249 115.809,25.249 116.915,22.542 119.728,22.542 
		118.566,27.953 102.852,27.953 	"/>
	<path fill="#182539" d="M130.143,20.082h-2.648l-1.138,5.329h2.165l-0.542,2.542h-8.331l0.54-2.542h2.271l3.142-14.794h-2.272
		l0.567-2.625h9.033c4.922,0,6.926,2.813,6.086,6.681l-0.134,0.622c-0.543,2.488-2.166,3.977-4.922,4.544l2.188,5.572h2.054
		l-0.539,2.542h-4.572L130.143,20.082z M128.084,17.297h3.139c2.218,0,3.326-0.541,3.867-2.706l0.084-0.432
		c0.515-2.732-0.731-3.354-2.949-3.354h-2.758L128.084,17.297z"/>
	<path fill="#182539" d="M139.229,25.411h2.516l3.142-14.794h-2.517l0.566-2.625h8.926l-0.57,2.625h-2.513l-3.138,14.794h2.516
		l-0.541,2.542h-8.927L139.229,25.411z M148.237,2.042h3.869l-3.141,4.518h-3L148.237,2.042z"/>
	<path fill="#182539" d="M150.917,25.411l8.388-14.794h-2.356l0.567-2.625h6.491l3.06,17.419h1.729l-0.541,2.542h-7.789l0.541-2.542
		h2.217l-0.434-2.731h-6.705l-1.435,2.731h2.06l-0.545,2.542h-7.521l0.54-2.542H150.917z M157.433,20.11h4.952l-1.11-7.112h-0.106
		L157.433,20.11z"/>
	<path fill="#182539" d="M183.399,9.48c0.246-0.678,0.598-1.489,0.785-1.489h2.596l-1.16,5.465h-2.978
		c-0.216-1.487-0.841-2.65-2.812-2.84c-2.191-0.216-3.41,0.512-3.734,2.082c-0.514,2.462,1.137,2.759,3.922,3.652
		c3.518,1.134,5.762,2.812,4.869,7.005c-0.703,3.353-3.545,5.301-8.032,4.813c-1.921-0.216-3.14-0.893-3.948-2.082
		c-0.326,0.785-0.783,1.866-0.975,1.866h-2.598l1.297-6.141h3.059c0.217,2.166,1.244,3.273,3.273,3.465
		c2.92,0.297,3.92-0.814,4.246-2.329c0.457-2.053-0.894-2.65-3.437-3.46c-4.003-1.298-6.168-2.679-5.194-7.168
		c0.76-3.543,3.733-5.004,7.332-4.625C181.506,7.883,182.724,8.532,183.399,9.48"/>
	<polygon fill="#FF0022" points="205.583,16.677 209.232,16.677 210.097,12.693 213.396,12.693 212.549,16.677 216.247,16.677 
		215.583,19.797 211.886,19.797 211.045,23.799 207.729,23.799 208.568,19.797 204.918,19.797 	"/>
	<polygon fill="#FF0022" points="22.628,15.56 32.397,15.56 31.491,19.778 21.722,19.778 	"/>
	<path fill="#FF0022" d="M20.85,40.951c0.514-1.463,1.025-2.783,1.28-2.783h4.356l-1.866,8.677h-4.904
		c-0.184-2.308-1.281-3.697-3.625-3.953c-3.221-0.33-4.721,1.979-5.674,6.369l-0.805,3.731c-1.024,4.723,0.038,7.211,3.588,7.611
		c3.109,0.335,5.271-1.388,6.772-2.705l3.074,3.879c-2.27,2.305-5.894,4.43-11.64,3.807C4.487,64.852,0.83,60.24,2.514,52.442
		l0.875-4.244c1.649-7.758,6.333-11.163,12.483-10.47C18.69,38.059,20.155,39.34,20.85,40.951"/>
	<path fill="#FF0022" d="M27.184,61.119l10.724-18.778H34.98l0.914-4.173h11.42l3.367,22.951h2.015l-0.879,4.062H39.848l0.878-4.062
		h2.673l-0.33-3.004h-7.87l-1.536,3.004h2.671l-0.877,4.062H24.292l0.878-4.062H27.184z M37.286,53.984h5.344l-0.879-8.275h-0.219
		L37.286,53.984z"/>
	<polygon fill="#FF0022" points="54.784,61.119 57.455,61.119 61.444,42.342 58.736,42.342 59.65,38.168 69.643,38.168 
		75.424,56.543 75.572,56.543 78.575,42.342 76.122,42.342 77,38.168 87.432,38.168 86.551,42.342 83.993,42.342 79.159,65.18 
		71.656,65.18 66.054,47.354 65.908,47.354 62.981,61.119 65.468,61.119 64.629,65.18 53.904,65.18 	"/>
	<polygon fill="#FF0022" points="84.651,61.119 87.319,61.119 91.313,42.342 88.604,42.342 89.519,38.168 110.786,38.168 
		109.246,45.489 104.745,45.489 104.781,42.635 98.377,42.635 96.985,49.226 100.061,49.226 100.792,47.395 104.856,47.395 
		103.134,55.447 99.328,55.447 99.292,53.32 96.106,53.32 94.533,60.717 101.962,60.717 103.282,57.461 107.967,57.461 
		106.319,65.18 83.772,65.18 	"/>
	<polygon fill="#FF0022" points="113.967,42.342 112.175,42.342 113.088,38.168 125.024,38.168 124.108,42.342 121.215,42.342 
		123.267,56.322 123.411,56.322 131.208,42.342 128.39,42.342 129.269,38.168 139.918,38.168 139.042,42.342 137.249,42.342 
		123.304,65.402 118.144,65.402 	"/>
	<polygon fill="#FF0022" points="137.14,61.119 139.813,61.119 143.803,42.342 141.09,42.342 142.006,38.168 163.274,38.168 
		161.734,45.489 157.235,45.489 157.271,42.635 150.866,42.635 149.476,49.226 152.549,49.226 153.278,47.395 157.345,47.395 
		155.62,55.447 151.815,55.447 151.78,53.32 148.597,53.32 147.02,60.717 154.452,60.717 155.771,57.461 160.456,57.461 
		158.808,65.18 136.263,65.18 	"/>
	<polygon fill="#FF0022" points="161.809,61.119 164.479,61.119 168.471,42.342 165.763,42.342 166.677,38.168 179.524,38.168 
		178.647,42.342 175.607,42.342 171.691,60.717 177.954,60.717 179.491,56.799 184.286,56.799 182.486,65.18 160.928,65.18 	"/>
	<polygon fill="#FF0022" points="185.458,61.119 188.124,61.119 192.116,42.342 189.407,42.342 190.325,38.168 203.17,38.168 
		202.292,42.342 199.252,42.342 195.336,60.717 201.6,60.717 203.137,56.799 207.93,56.799 206.135,65.18 184.577,65.18 	"/>
	<path fill="#FF0022" d="M210.97,52.3l0.911-4.138c1.687-7.688,7.214-11.127,14.457-10.396c6.959,0.733,10.615,5.526,8.936,13.178
		l-0.88,4.174c-1.722,7.942-7.504,11.199-14.42,10.43C213.055,64.816,209.209,60.24,210.97,52.3 M227.331,54.018l0.801-3.697
		c0.992-4.646,0.187-7.248-3.071-7.613c-3.259-0.364-5.199,1.722-6.185,6.554l-0.807,3.694c-0.951,4.65-0.186,7.321,3.074,7.688
		C224.437,61.011,226.304,58.813,227.331,54.018"/>
</g>
</svg>
