<?xml version="1.0" encoding="utf-8"?>
<!-- Generator: Adobe Illustrator 16.0.0, SVG Export Plug-In . SVG Version: 6.00 Build 0)  -->
<!DOCTYPE svg PUBLIC "-//W3C//DTD SVG 1.1//EN" "http://www.w3.org/Graphics/SVG/1.1/DTD/svg11.dtd">
<svg version="1.1" id="Layer_1" xmlns="http://www.w3.org/2000/svg" xmlns:xlink="http://www.w3.org/1999/xlink" x="0px" y="0px"
	 width="400px" height="400px" viewBox="220.945 97.64 400 400" enable-background="new 220.945 97.64 400 400"
	 xml:space="preserve">
<circle fill="#25D366" cx="420.945" cy="297.64" r="192.5"/>
<g id="XMLID_468_">
	<path id="XMLID_469_" fill="#FFFFFF" d="M475.413,314.578c-0.441-0.212-16.99-8.361-19.933-9.42
		c-1.198-0.431-2.485-0.852-3.854-0.852c-2.234,0-4.109,1.113-5.573,3.302c-1.652,2.456-6.657,8.306-8.203,10.054
		c-0.202,0.23-0.478,0.505-0.644,0.505c-0.147,0-2.708-1.054-3.484-1.392c-17.751-7.71-31.228-26.255-33.075-29.381
		c-0.264-0.45-0.275-0.654-0.277-0.654c0.064-0.238,0.662-0.837,0.97-1.146c0.902-0.892,1.878-2.066,2.822-3.204
		c0.448-0.54,0.896-1.079,1.336-1.587c1.371-1.595,1.981-2.834,2.688-4.268l0.372-0.745c1.727-3.432,0.251-6.329-0.225-7.264
		c-0.392-0.784-7.379-17.647-8.122-19.42c-1.787-4.274-4.147-6.265-7.428-6.265c-0.304,0,0,0-1.276,0.054
		c-1.554,0.065-10.02,1.18-13.762,3.538c-3.969,2.503-10.683,10.48-10.683,24.506c0,12.625,8.011,24.545,11.45,29.079
		c0.086,0.112,0.242,0.345,0.471,0.68c13.173,19.237,29.594,33.493,46.24,40.144c16.028,6.4,23.615,7.142,27.931,7.142
		c0.001,0,0.001,0,0.001,0c1.814,0,3.265-0.143,4.546-0.267l0.811-0.079c5.536-0.492,17.703-6.795,20.472-14.486
		c2.18-6.058,2.754-12.676,1.304-15.077C479.293,316.44,477.581,315.619,475.413,314.578z"/>
	<path id="XMLID_470_" fill="#FFFFFF" d="M422.96,184.14c-61.479,0-111.496,49.641-111.496,110.657
		c0,19.734,5.282,39.054,15.287,55.96l-19.15,56.488c-0.356,1.055-0.091,2.218,0.688,3.012c0.562,0.574,1.325,0.883,2.104,0.883
		c0.298,0,0.599-0.046,0.892-0.138l58.903-18.718c16.119,8.612,34.336,13.157,52.773,13.157
		c61.474,0.001,111.484-49.635,111.484-110.645C534.445,233.781,484.434,184.14,422.96,184.14z M422.96,382.392
		c-17.348,0-34.151-5.01-48.596-14.488c-0.485-0.318-1.049-0.482-1.617-0.482c-0.3,0-0.601,0.047-0.893,0.138l-29.507,9.381
		l9.525-28.103c0.309-0.908,0.155-1.912-0.413-2.688c-10.999-15.028-16.813-32.785-16.813-51.353
		c0-48.306,39.617-87.606,88.314-87.606c48.689,0,88.304,39.301,88.304,87.606C511.263,343.097,471.651,382.392,422.96,382.392z"/>
</g>
</svg>
